<svg width="24" height="24" viewBox="0 0 24 24" fill="none" xmlns="http://www.w3.org/2000/svg">
  <g clip-path="url(#clip0)">
    <path d="M12 24c6.627 0 12-5.373 12-12S18.627 0 12 0 0 5.373 0 12s5.373 12 12 12z" fill="#EF7A55"/>
    <path d="M13.742 22.258c-6.628 0-12-5.372-12-12 0-2.87 1.009-5.504 2.69-7.569A11.975 11.975 0 000 12c0 6.627 5.373 12 12 12 3.758 0 7.11-1.728 9.31-4.431a11.948 11.948 0 01-7.568 2.689z" fill="#D9633D"/>
    <path d="M9.677 9.778a.486.486 0 01-.197-.042L5.996 8.185A.484.484 0 016.39 7.3l3.484 1.552a.484.484 0 01-.197.926zM14.323 9.777a.484.484 0 01-.197-.926L17.61 7.3a.484.484 0 11.393.884L14.52 9.735a.486.486 0 01-.197.042zM7.936 12.774a.968.968 0 01-.968-.968v-.774a.968.968 0 111.935 0v.774a.968.968 0 01-.967.968z" fill="#5A4650"/>
    <path d="M7.935 10.065a.972.972 0 00-.193.019v1.335a.58.58 0 101.161 0v-.387a.968.968 0 00-.968-.967z" fill="#6E5A64"/>
    <path d="M16.065 12.774a.968.968 0 01-.968-.968v-.774a.968.968 0 011.935 0v.774a.968.968 0 01-.967.968z" fill="#5A4650"/>
    <path d="M16.064 10.065a.973.973 0 00-.193.019v1.335a.58.58 0 001.161 0v-.387a.968.968 0 00-.968-.967z" fill="#6E5A64"/>
    <path d="M11.977 15.578a6.89 6.89 0 012.377.424c.298.11.531-.469.345-.877-.147-.323-.357-.569-.61-.68a5.237 5.237 0 00-4.225 0c-.253.111-.463.357-.61.68-.186.408.047.986.346.877a6.89 6.89 0 012.377-.424z" fill="#5A4650"/>
  </g>
  <defs>
    <clipPath id="clip0">
      <path d="M0 0h24v24H0V0z" fill="#fff"/>
    </clipPath>
  </defs>
</svg>
